<svg width="64" height="64" viewBox="0 0 64 64" fill="none" xmlns="http://www.w3.org/2000/svg">
  <!-- Klinik Adelia Favicon - Simplified -->
  <defs>
    <linearGradient id="favBlue" x1="0%" y1="0%" x2="0%" y2="100%">
      <stop offset="0%" style="stop-color:#1e3a8a;stop-opacity:1" />
      <stop offset="100%" style="stop-color:#3b82f6;stop-opacity:1" />
    </linearGradient>
    
    <linearGradient id="favLightBlue" x1="0%" y1="0%" x2="0%" y2="100%">
      <stop offset="0%" style="stop-color:#dbeafe;stop-opacity:1" />
      <stop offset="100%" style="stop-color:#93c5fd;stop-opacity:1" />
    </linearGradient>
  </defs>
  
  <!-- Simplified 5-petal design for small size -->
  <!-- Bottom petals (3 petals) -->
  <path d="M 32 38 Q 18 40 14 36 Q 13 34 15 32 Q 20 35 26 37 Z" fill="url(#favBlue)"/>
  <path d="M 32 38 Q 30 44 32 48 Q 34 44 32 38 Z" fill="url(#favBlue)" opacity="0.9"/>
  <path d="M 32 38 Q 46 40 50 36 Q 51 34 49 32 Q 44 35 38 37 Z" fill="url(#favBlue)"/>
  
  <!-- Standing petals (3 petals) -->
  <path d="M 32 38 Q 22 32 20 22 Q 19.5 20 21 19 Q 24 28 29 35 Z" fill="url(#favBlue)"/>
  <path d="M 32 38 Q 30 28 30 16 Q 30 14 32 13 Q 34 14 34 16 Q 34 28 32 38 Z" fill="url(#favBlue)"/>
  <path d="M 32 38 Q 42 32 44 22 Q 44.5 20 43 19 Q 40 28 35 35 Z" fill="url(#favBlue)"/>
  
  <!-- Center light petals (2 petals) -->
  <path d="M 32 38 Q 30 30 30 20 Q 30 18 32 17 Q 34 18 34 20 Q 34 30 32 38 Z" fill="url(#favLightBlue)"/>
  
  <!-- Top crown -->
  <path d="M 32 17 Q 30 15 31 12 Q 32 11 32 10 Q 32 11 33 12 Q 34 15 32 17 Z" fill="#1e3a8a" opacity="0.8"/>
</svg>
